HIERARCHY
ROOT Hips
{
	OFFSET 0.00000 0.00000 0.00000
	CHANNELS 6 Xposition Yposition Zposition Zrotation Yrotation Xrotation 
	JOINT LHipJoint
	{
		OFFSET 0 0 0
		CHANNELS 3 Zrotation Yrotation Xrotation
		JOINT LeftUpLeg
		{
			OFFSET 1.09156 -1.61406 0.76500
			CHANNELS 3 Zrotation Yrotation Xrotation
			JOINT LeftLeg
			{
				OFFSET 2.33750 -6.42225 0.00000
				CHANNELS 3 Zrotation Yrotation Xrotation
				JOINT LeftFoot
				{
					OFFSET 2.49247 -6.84800 0.00000
					CHANNELS 3 Zrotation Yrotation Xrotation
					JOINT LeftToeBase
					{
						OFFSET 0.15312 -0.42069 1.45461
						CHANNELS 3 Zrotation Yrotation Xrotation
						End Site
						{
							OFFSET 0.00000 -0.00000 0.77046
						}
					}
				}
			}
		}
	}
	JOINT RHipJoint
	{
		OFFSET 0 0 0
		CHANNELS 3 Zrotation Yrotation Xrotation
		JOINT RightUpLeg
		{
			OFFSET -0.99883 -1.61406 0.76500
			CHANNELS 3 Zrotation Yrotation Xrotation
			JOINT RightLeg
			{
				OFFSET -2.36877 -6.50815 0.00000
				CHANNELS 3 Zrotation Yrotation Xrotation
				JOINT RightFoot
				{
					OFFSET -2.53452 -6.96353 0.00000
					CHANNELS 3 Zrotation Yrotation Xrotation
					JOINT RightToeBase
					{
						OFFSET -0.13156 -0.36145 1.63237
						CHANNELS 3 Zrotation Yrotation Xrotation
						End Site
						{
							OFFSET -0.00000 -0.00000 0.84979
						}
					}
				}
			}
		}
	}
	JOINT LowerBack
	{
		OFFSET 0 0 0
		CHANNELS 3 Zrotation Yrotation Xrotation
		JOINT Spine
		{
			OFFSET -0.02431 1.98242 -0.13616
			CHANNELS 3 Zrotation Yrotation Xrotation
			JOINT Spine1
			{
				OFFSET 0.03629 1.98974 -0.02954
				CHANNELS 3 Zrotation Yrotation Xrotation
				JOINT Neck
				{
					OFFSET 0 0 0
					CHANNELS 3 Zrotation Yrotation Xrotation
					JOINT Neck1
					{
						OFFSET 0.09349 1.40783 0.22333
						CHANNELS 3 Zrotation Yrotation Xrotation
						JOINT Head
						{
							OFFSET -0.04273 1.44500 -0.06495
							CHANNELS 3 Zrotation Yrotation Xrotation
							End Site
							{
								OFFSET -0.02251 1.44600 -0.04544
							}
						}
					}
				}
				JOINT LeftShoulder
				{
					OFFSET 0 0 0
					CHANNELS 3 Zrotation Yrotation Xrotation
					JOINT LeftArm
					{
						OFFSET 3.49137 0.85126 -0.29740
						CHANNELS 3 Zrotation Yrotation Xrotation
						JOINT LeftForeArm
						{
							OFFSET 5.06035 -0.00000 0.00000
							CHANNELS 3 Zrotation Yrotation Xrotation
							JOINT LeftHand
							{
								OFFSET 3.14780 -0.00000 0.00000
								CHANNELS 3 Zrotation Yrotation Xrotation
								JOINT LeftFingerBase
								{
									OFFSET 0 0 0
									CHANNELS 3 Zrotation Yrotation Xrotation
									JOINT LeftHandIndex1
									{
										OFFSET 0.60675 -0.00000 0.00000
										CHANNELS 3 Zrotation Yrotation Xrotation
										End Site
										{
											OFFSET 0.48918 -0.00000 0.00000
										}
									}
								}
								JOINT LThumb
								{
									OFFSET 0 0 0
									CHANNELS 3 Zrotation Yrotation Xrotation
									End Site
									{
										OFFSET 0.49664 -0.00000 0.49664
									}
								}
							}
						}
					}
				}
				JOINT RightShoulder
				{
					OFFSET 0 0 0
					CHANNELS 3 Zrotation Yrotation Xrotation
					JOINT RightArm
					{
						OFFSET -3.28101 0.69707 0.00747
						CHANNELS 3 Zrotation Yrotation Xrotation
						JOINT RightForeArm
						{
							OFFSET -5.12273 -0.00000 -0.00000
							CHANNELS 3 Zrotation Yrotation Xrotation
							JOINT RightHand
							{
								OFFSET -3.42200 -0.00000 0.00000
								CHANNELS 3 Zrotation Yrotation Xrotation
								JOINT RightFingerBase
								{
									OFFSET 0 0 0
									CHANNELS 3 Zrotation Yrotation Xrotation
									JOINT RightHandIndex1
									{
										OFFSET -0.70460 -0.00000 0.00000
										CHANNELS 3 Zrotation Yrotation Xrotation
										End Site
										{
											OFFSET -0.56807 -0.00000 0.00000
										}
									}
								}
								JOINT RThumb
								{
									OFFSET 0 0 0
									CHANNELS 3 Zrotation Yrotation Xrotation
									End Site
									{
										OFFSET -0.57674 -0.00000 0.57674
									}
								}
							}
						}
					}
				}
			}
		}
	}
}
MOTION
Frames: 14
Frame Time: .0083333
34.6339 13.5321 -0.4745 181.7450 -73.4107 -120.7550 0.0000 0.0000 0.0000 -5.2599 -18.5924 -74.0868 14.5614 19.2756 73.9120 6.2121 -11.9268 -45.8860 0.2143 -2.9803 -8.2240 0.0000 0.0000 0.0000 6.8105 13.2300 -34.6256 -6.3571 -14.7657 46.3985 1.1132 18.3626 5.1284 -0.9693 -6.2682 17.5647 -9.6756 2.4924 10.1681 0.9025 2.2358 2.8754 6.1192 1.1056 -3.0855 -4.5805 -2.1067 -17.2324 -16.2536 1.5292 23.3023 -4.9527 -1.8919 10.6088 0.0000 0.0000 0.0000 -80.6644 -84.6320 55.2912 11.1697 -18.5480 -1.8295 -0.0000 -0.0000 20.1776 79.2613 43.7792 74.6712 -7.1250 0.0000 -0.0000 142.2269 -69.1476 -156.9988 0.0000 0.0000 0.0000 22.1782 77.3757 6.2241 -13.6367 22.2130 -2.6892 0.0000 0.0000 27.9514 -23.9486 35.1312 -14.3372 7.1250 -0.0000 -0.0000 4.9365 7.4887 5.5572
34.5526 13.5776 -0.4756 181.1560 -73.2006 -120.6760 0.0000 0.0000 0.0000 -5.7506 -19.2732 -72.3626 14.1386 19.1555 72.6273 6.3260 -11.1108 -46.3813 0.1312 -2.3344 -6.4308 0.0000 0.0000 0.0000 6.6362 12.5754 -35.2653 -6.7197 -15.0912 47.8061 1.5804 21.6579 6.3298 -0.6596 -5.1946 14.4645 -9.8315 2.5778 10.8427 0.8685 2.2508 3.1710 6.1573 1.0970 -3.1518 -4.8057 -2.2482 -17.9253 -15.7948 1.4746 24.1352 -4.8254 -1.9565 11.0471 0.0000 0.0000 0.0000 -81.9468 -84.9549 56.4866 11.0952 -18.4340 -1.8059 -0.0000 -0.0000 20.2832 80.3103 43.9848 76.1867 -7.1250 0.0000 -0.0000 143.9552 -68.2605 -158.8457 0.0000 0.0000 0.0000 20.7431 77.4558 4.9178 -13.6288 22.2015 -2.6862 0.0000 0.0000 27.5487 -23.3784 35.4872 -14.0877 7.1250 -0.0000 -0.0000 5.3085 7.7128 5.9971
34.4753 13.6146 -0.4739 180.7630 -73.2004 -120.8220 0.0000 0.0000 0.0000 -5.9608 -20.1293 -70.5995 13.7130 19.0247 71.3261 6.4764 -9.8495 -47.0636 0.1020 -2.0593 -5.6697 0.0000 0.0000 0.0000 6.6814 11.8597 -35.8338 -7.0622 -15.3841 49.1094 2.0832 24.5738 7.9677 -0.9798 -6.3011 17.6605 -9.7569 2.7023 11.5450 0.9262 2.3409 3.4787 6.1504 1.1241 -3.2287 -4.6539 -2.2933 -17.9905 -15.9614 1.4020 24.0629 -4.9221 -1.9927 11.0291 -0.0000 -0.0000 0.0000 -84.6562 -85.2149 58.7690 11.0617 -18.3828 -1.7953 -0.0000 -0.0000 20.7879 81.1529 44.6428 77.5101 -7.1250 0.0000 -0.0000 146.3349 -67.4878 -160.9409 -0.0000 -0.0000 0.0000 18.7472 77.4649 2.7497 -13.5449 22.0804 -2.6546 0.0000 0.0000 27.9864 -23.3763 35.6473 -14.1393 7.1250 -0.0000 -0.0000 5.3385 7.8742 6.0441
34.4025 13.6421 -0.4730 180.4940 -73.0934 -121.1010 0.0000 0.0000 0.0000 -6.2887 -20.8659 -68.7942 13.2724 18.8783 69.9695 6.4486 -8.5750 -47.0682 0.0544 -1.5050 -4.1394 0.0000 0.0000 0.0000 6.6945 11.2305 -36.3786 -7.3750 -15.6397 50.2787 2.6403 27.3491 9.3441 -1.3846 -7.4454 21.0419 -9.7076 2.8277 12.2038 0.9398 2.4307 3.8408 6.1118 1.1433 -3.2210 -4.6126 -2.3261 -17.9318 -16.0098 1.3098 23.6970 -4.9336 -2.0102 10.8731 -0.0000 -0.0000 0.0000 -85.5760 -85.4452 59.1075 11.1465 -18.5125 -1.8222 -0.0000 -0.0000 21.2527 80.8001 44.9280 77.0833 -7.1250 0.0000 -0.0000 146.5934 -67.7511 -160.9053 -0.0000 -0.0000 0.0000 16.8084 77.5791 0.4398 -13.4703 21.9723 -2.6266 0.0000 0.0000 28.4528 -23.3684 35.7992 -14.1843 7.1250 -0.0000 -0.0000 5.3702 8.0257 6.0925
34.3224 13.6794 -0.4735 179.7670 -72.8684 -121.0390 0.0000 0.0000 0.0000 -6.8720 -21.6584 -66.7742 12.7975 18.7078 68.4953 6.5381 -7.3134 -47.5599 0.0083 -0.5877 -1.6150 0.0000 0.0000 0.0000 6.6650 10.4297 -36.9535 -7.6712 -15.8720 51.3695 3.2009 29.7620 11.2239 -1.6823 -8.1703 23.2324 -9.8007 2.9283 12.9454 0.8969 2.4546 4.2693 6.1026 1.1230 -3.1761 -4.9711 -2.5144 -17.7610 -15.4897 0.9825 23.3654 -4.6936 -2.0966 10.6845 0.0000 -0.0000 0.0000 -86.9787 -85.8828 60.2697 11.1333 -18.4923 -1.8180 -0.0000 -0.0000 21.2145 80.4448 44.5377 76.5041 -7.1250 0.0000 -0.0000 145.3595 -68.0886 -159.8770 0.0000 -0.0000 0.0000 15.1772 77.7900 -1.9007 -13.4449 21.9356 -2.6172 0.0000 0.0000 29.1263 -23.4121 35.9919 -14.2762 7.1250 -0.0000 -0.0000 5.3820 8.2308 6.1223
34.2256 13.7373 -0.4707 178.7620 -72.8581 -121.1210 0.0000 0.0000 0.0000 -7.5195 -22.6564 -64.1423 12.2777 18.5056 66.8663 6.5431 -5.9721 -47.7561 0.0006 0.1628 0.4473 0.0000 0.0000 0.0000 6.9734 9.1693 -37.2252 -7.9419 -16.0764 52.3532 3.7504 31.9149 14.8960 -2.0957 -9.0626 25.9915 -9.6323 3.0349 14.2709 0.8937 2.4472 4.7307 5.9792 1.0937 -3.3972 -4.5984 -2.4970 -17.9886 -15.7143 0.9681 23.2345 -4.8414 -2.0946 10.6782 0.0000 0.0000 0.0000 -91.4273 -86.2990 64.5313 11.0130 -18.3081 -1.7800 -0.0000 -0.0000 21.1831 80.7515 44.3108 76.8785 -7.1250 0.0000 -0.0000 145.1830 -67.8584 -159.9414 0.0000 0.0000 0.0000 12.5919 77.8568 -4.1459 -13.3666 21.8220 -2.5880 0.0000 0.0000 28.9070 -23.3228 35.9422 -14.2015 7.1250 -0.0000 -0.0000 5.4207 8.1592 6.1609
34.1264 13.7894 -0.4631 177.8520 -73.0758 -121.6160 0.0000 0.0000 0.0000 -8.1795 -23.6938 -61.0691 11.7379 18.2776 65.1555 6.3419 -3.6117 -47.3463 0.0010 -0.2065 -0.5674 0.0000 0.0000 0.0000 7.5234 7.7687 -37.0351 -8.2011 -16.2652 53.2838 4.0380 32.9410 15.5327 -2.1650 -9.2017 26.4283 -9.1436 3.1167 16.0401 0.9585 2.4064 5.2034 5.7450 1.0525 -3.8237 -3.8397 -2.3110 -18.0047 -16.6856 1.1795 22.9285 -5.2886 -2.0335 10.5944 -0.0000 0.0000 0.0000 -95.2215 -86.4493 67.8964 10.9814 -18.2598 -1.7701 -0.0000 -0.0000 21.5116 80.8265 44.4647 77.0175 -7.1250 0.0000 -0.0000 145.6048 -67.7792 -160.2671 -0.0000 0.0000 0.0000 11.4559 77.8619 -5.7479 -13.3488 21.7962 -2.5814 0.0000 0.0000 29.6028 -23.3932 36.0227 -14.2740 7.1250 -0.0000 -0.0000 5.3977 8.2573 6.1424
34.0288 13.8300 -0.4629 177.4720 -73.0949 -122.8250 0.0000 0.0000 0.0000 -9.0431 -24.4680 -57.6879 11.1919 18.0277 63.4031 6.3681 -2.9044 -47.5830 0.0008 0.1820 0.5001 0.0000 0.0000 0.0000 7.9579 6.6653 -36.4155 -8.4729 -16.4563 54.2487 4.1974 33.5078 11.5722 -1.4574 -7.6303 21.5967 -8.8235 3.2697 17.9690 1.0001 2.4173 5.7159 5.5709 1.0314 -4.2917 -4.2089 -2.4717 -17.9817 -16.1741 0.9554 22.9779 -5.0650 -2.1058 10.5839 -0.0000 -0.0000 0.0000 -95.7590 -86.7102 68.0994 10.9672 -18.2380 -1.7656 -0.0000 -0.0000 21.6198 81.2583 44.6906 77.6668 -7.1250 0.0000 -0.0000 146.5460 -67.3946 -161.1405 -0.0000 -0.0000 0.0000 10.3923 77.9737 -7.1033 -13.3221 21.7574 -2.5715 0.0000 0.0000 30.1661 -23.5108 36.1971 -14.4086 7.1250 -0.0000 -0.0000 5.3670 8.4617 6.1234
33.9213 13.8742 -0.4621 176.4450 -73.0026 -123.6060 0.0000 0.0000 0.0000 -10.2783 -25.3632 -53.9914 10.6703 17.7699 61.7061 6.1602 -0.7512 -47.2204 0.0505 1.4495 3.9867 0.0000 0.0000 0.0000 8.1049 5.3932 -35.7826 -8.8506 -16.7106 55.5721 4.2518 34.0080 8.3801 -1.1344 -6.7644 19.0191 -8.5931 3.3972 20.1114 0.9723 2.3505 6.2736 5.3903 0.9662 -4.7917 -3.9772 -2.4321 -17.8057 -16.3675 0.9235 22.5976 -5.1496 -2.0929 10.4065 0.0000 0.0000 0.0000 -95.2427 -87.0763 67.4850 10.9322 -18.1843 -1.7547 -0.0000 -0.0000 21.7471 81.8569 44.9286 78.5464 -7.1250 0.0000 -0.0000 147.6429 -66.8682 -162.1924 0.0000 0.0000 0.0000 8.3557 78.1686 -8.9525 -13.2598 21.6667 -2.5484 0.0000 0.0000 30.0368 -23.5178 36.0248 -14.3564 7.1250 -0.0000 -0.0000 5.3315 8.2893 6.0690
33.8120 13.9213 -0.4571 175.0520 -72.9707 -123.6880 0.0000 0.0000 0.0000 -11.4730 -26.3494 -50.7014 10.1580 17.4977 60.0150 6.1757 -0.5273 -47.3346 0.1289 2.3138 6.3738 0.0000 0.0000 0.0000 8.1228 4.0057 -35.7838 -9.2792 -16.9840 57.0506 4.1798 34.1485 6.0172 -1.1570 -6.8292 19.2102 -8.2562 3.3819 21.8806 0.8996 2.1674 6.7495 5.1417 0.8456 -5.1454 -3.7563 -2.3747 -17.5621 -16.5078 0.8851 22.0463 -5.1998 -2.0640 10.1534 -0.0000 0.0000 0.0000 -89.6724 -87.3607 62.4297 11.0107 -18.3047 -1.7793 -0.0000 -0.0000 21.1566 81.8128 44.8474 78.4691 -7.1250 0.0000 -0.0000 147.4313 -66.9136 -162.0325 -0.0000 0.0000 0.0000 6.3532 78.4216 -10.9923 -13.2118 21.5967 -2.5307 0.0000 0.0000 29.7137 -23.5138 35.9589 -14.3320 7.1250 -0.0000 -0.0000 5.3215 8.2218 6.0522
33.7935 13.9677 -0.4902 176.5190 -72.4935 -123.4660 0.0000 0.0000 0.0000 -10.6196 -26.0521 -52.0672 9.7286 17.2544 58.5772 6.0791 -0.6333 -46.9251 0.1640 2.6091 7.1923 0.0000 0.0000 0.0000 8.2068 4.7357 -39.5539 -9.8704 -17.3363 59.0544 3.2541 32.4319 -0.8437 -0.3020 -3.5334 9.7675 -8.9820 3.5376 20.4327 0.9401 2.4034 6.4833 5.5605 0.9727 -4.7481 -3.5874 -2.2757 -18.0143 -16.5819 1.0799 22.3228 -5.2641 -2.0021 10.3585 0.0000 -0.0000 0.0000 -81.1890 -87.6417 54.8789 11.0768 -18.4059 -1.8001 -0.0000 -0.0000 19.9769 82.0792 44.3836 78.7500 -7.1250 0.0000 -0.0000 146.7381 -66.7331 -161.7496 0.0000 -0.0000 0.0000 4.8224 78.4496 -12.1447 -13.1612 21.5229 -2.5121 0.0000 0.0000 30.2879 -23.4311 36.2717 -14.3806 7.1250 -0.0000 -0.0000 5.4233 8.5176 6.1926
33.7002 13.9965 -0.4872 175.7790 -72.4392 -123.7660 0.0000 0.0000 0.0000 -11.4816 -26.7698 -49.5612 9.3063 17.0008 57.1435 6.0251 0.0651 -46.8792 0.3318 3.7018 10.2392 0.0000 0.0000 0.0000 8.2204 3.8161 -39.9968 -10.4841 -17.6732 61.0944 2.3094 30.5614 -6.3582 -0.0621 -1.6080 4.4234 -8.6973 3.6180 21.6572 0.9535 2.3994 6.8536 5.3955 0.9441 -4.9663 -3.8511 -2.3415 -18.1748 -16.2520 1.0381 22.5300 -5.1201 -2.0215 10.4595 -0.0000 -0.0000 0.0000 -87.7643 -87.8780 60.6369 10.9502 -18.2118 -1.7603 -0.0000 -0.0000 20.6514 82.7862 44.3391 79.7347 -7.1250 0.0000 -0.0000 147.3624 -66.1337 -162.5636 -0.0000 -0.0000 0.0000 2.9003 78.3160 -13.8214 -13.1832 21.5551 -2.5202 0.0000 0.0000 29.9107 -23.3168 36.1970 -14.2809 7.1250 -0.0000 -0.0000 5.4705 8.4149 6.2387
33.6162 14.0317 -0.4918 175.1200 -72.3150 -123.9220 0.0000 0.0000 0.0000 -12.2969 -27.2854 -47.3788 8.8646 16.7198 55.6207 5.8974 0.8792 -46.5776 0.5245 4.6412 12.8880 0.0000 0.0000 0.0000 8.0665 3.2980 -40.6413 -11.0625 -17.9656 62.9845 1.6975 28.7520 -8.8861 -0.0658 -1.6550 4.5531 -8.5460 3.6972 22.6856 0.9218 2.3886 7.1928 5.2629 0.9122 -5.1113 -3.7129 -2.4280 -18.0781 -16.2652 0.8364 22.2354 -5.1524 -2.0798 10.3137 -0.0000 -0.0000 0.0000 -96.0512 -88.1684 67.6963 10.8256 -18.0204 -1.7216 -0.0000 -0.0000 21.9146 82.6832 44.9204 79.6940 -7.1250 0.0000 -0.0000 148.4175 -66.1706 -163.1510 -0.0000 -0.0000 0.0000 0.6023 78.2451 -15.8085 -13.1964 21.5743 -2.5251 0.0000 0.0000 29.6418 -23.2144 36.2024 -14.2154 7.1250 -0.0000 -0.0000 5.5262 8.3958 6.3011
33.6124 14.0624 -0.5307 174.0290 -72.8264 -120.7940 0.0000 0.0000 0.0000 -10.7093 -28.6126 -49.4119 8.4987 16.4741 54.3399 5.6161 1.4301 -45.5874 0.5656 4.8168 13.3867 0.0000 0.0000 0.0000 8.0526 3.7099 -45.2117 -11.8142 -18.3110 65.3986 1.1522 26.2999 -10.3379 -0.1431 -2.4377 6.7169 -8.5241 3.2624 21.0332 0.9871 2.0653 6.7629 5.4303 0.7865 -4.6895 -3.3901 -2.3921 -17.7443 -16.3386 0.7175 21.6553 -5.2002 -2.0654 10.0237 0.0000 -0.0000 0.0000 -92.4865 -88.4265 63.7130 10.8298 -18.0269 -1.7229 -0.0000 -0.0000 22.3764 82.0881 45.3617 78.9487 -7.1250 0.0000 -0.0000 148.7494 -66.6294 -163.0196 0.0000 -0.0000 0.0000 -1.1872 78.4346 -17.5809 -13.1750 21.5431 -2.5172 0.0000 0.0000 29.6731 -23.2488 35.9408 -14.1526 7.1250 -0.0000 -0.0000 5.4601 8.1402 6.2046
